<svg xmlns="http://www.w3.org/2000/svg" width="16" height="16" viewBox="0 0 26 26"><defs><style>svg *{fill:#fff;opacity:1!important}:hover{fill:#45bbe6!important}</style></defs><path d="M21.125 12.188a.812.812 0 0 0-.813.813v5.688a.812.812 0 1 0 1.626 0v-5.688a.812.812 0 0 0-.813-.813zm-2.437 12.187H7.313a.813.813 0 0 0 0 1.626h11.375a.812.812 0 1 0 0-1.626zM16.25.813A.812.812 0 0 0 15.437 0h-4.063s-.813.363-.813.813l-10.563 9.75c0 .449.364.813.813.813h9.75c-.449 0-.813 1.176-.813 1.625v9.75c0 .449.363.813.813.813h4.875a.812.812 0 0 0 .813-.813v-9.75c0-.449-.363-1.625-.813-1.625h9.75a.812.812 0 0 0 .813-.813l-9.75-9.75z" fill="#45bbe6"/></svg>