<svg xmlns="http://www.w3.org/2000/svg" width="8.686" height="8.75" viewBox="144.444 416.571 8.686 8.75"><path fill="#2F3146" d="M150.783 423.711l-1.714-.945c.629-.49.805-1.505.805-2.03v-1.19c0-.77-1.016-1.61-2.03-1.61-1.015 0-2.065.84-2.065 1.61v1.155c0 .49.21 1.541.875 2.03l-1.75.945s-.455.21-.455.455v.7a.425.425 0 0 0 .42.489h5.915c.245 0 .455-.21.455-.454v-.7c-.001-.281-.456-.455-.456-.455zm-.07 1.049h-5.74v-.49c.035 0 .07-.035.14-.069 0 0 .035 0 .035-.035l1.75-.945c.175-.07.28-.245.28-.42s-.07-.35-.21-.49c-.455-.35-.665-1.19-.665-1.61v-1.155c0-.385.735-1.085 1.505-1.085.805 0 1.505.665 1.505 1.085v1.155c0 .42-.14 1.26-.595 1.61-.14.105-.21.28-.21.49 0 .175.105.35.28.42l1.715.945s.035 0 .035.035a.27.27 0 0 1 .14.069v.49h.035zm1.995-2.415l-1.75-.945c.63-.49.84-1.505.84-2.03v-1.19c0-.77-1.05-1.61-2.065-1.61-.665 0-1.33.35-1.75.805.21 0 .49 0 .7.07a1.8 1.8 0 0 1 1.05-.35c.806 0 1.505.665 1.505 1.085v1.155c0 .42-.175 1.26-.63 1.61-.14.105-.21.28-.21.49 0 .175.105.351.28.42l1.75.945s.035 0 .035.035c.035 0 .104.035.14.07v.489h-1.12c.175.141.21.315.28.561h.91c.245 0 .455-.21.455-.455v-.7c.036-.28-.42-.455-.42-.455z"/></svg>